<svg width="100" height="100" viewBox="0 0 100 100" fill="none" xmlns="http://www.w3.org/2000/svg">
<g clip-path="url(#clip0)">
<path d="M97.3763 77.1446L77.1359 63.6466C74.5673 61.9474 71.1243 62.5065 69.2253 64.9314L63.3295 72.5119C62.5718 73.511 61.1945 73.8008 60.0984 73.1919L58.9769 72.5736C55.2591 70.5471 50.6332 68.0243 41.3129 58.7007C31.9926 49.377 29.4646 44.7477 27.4382 41.0367L26.8232 39.9152C26.2059 38.8192 26.4903 37.436 27.4897 36.6723L35.0652 30.7782C37.489 28.8791 38.0489 25.437 36.3517 22.8677L22.8537 2.62734C21.1143 0.0109333 17.6246 -0.774497 14.9318 0.844208L6.46805 5.92841C3.80868 7.49185 1.8576 10.0239 1.02393 12.994C-2.02386 24.099 0.268966 43.2645 28.5015 71.5003C50.9599 93.9569 67.6791 99.9961 79.1707 99.9961C81.8155 100.007 84.4498 99.6633 87.003 98.973C89.9736 98.1403 92.5061 96.189 94.0685 93.5289L99.1578 85.0702C100.779 82.3768 99.9938 78.885 97.3763 77.1446ZM96.2864 83.3603L91.2088 91.8241C90.0869 93.7441 88.2655 95.1558 86.1262 95.7635C75.8744 98.5781 57.9637 96.2468 30.8594 69.1425C3.75498 42.0381 1.42387 24.129 4.2385 13.8757C4.847 11.7338 6.26046 9.91005 8.18283 8.78639L16.6466 3.70882C17.815 3.0058 19.3296 3.34657 20.0844 4.48195L27.4167 15.4903L33.5709 24.7205C34.3079 25.835 34.0657 27.3288 33.0143 28.1534L25.4371 34.0475C23.1312 35.8107 22.4727 39.001 23.8924 41.5331L24.4941 42.6263C26.6239 46.5323 29.2717 51.3916 38.9386 61.0569C48.6056 70.7221 53.4632 73.3702 57.3675 75.4997L58.4623 76.103C60.9941 77.5225 64.1847 76.8642 65.9479 74.5583L71.842 66.9811C72.6668 65.9302 74.16 65.6883 75.2748 66.4245L95.5134 79.9225C96.6496 80.6767 96.9904 82.1921 96.2864 83.3603Z" fill="white"/>
<path d="M56.6637 16.6753C72.3022 16.6927 84.9753 29.366 84.9929 45.0045C84.9929 45.9248 85.7389 46.6708 86.6592 46.6708C87.5796 46.6708 88.3256 45.9248 88.3256 45.0045C88.3063 27.526 74.1421 13.3617 56.6637 13.3426C55.7433 13.3426 54.9973 14.0885 54.9973 15.0089C54.9973 15.9293 55.7433 16.6753 56.6637 16.6753Z" fill="white"/>
<path d="M56.6637 26.6738C66.7825 26.6857 74.9824 34.8857 74.9944 45.0045C74.9944 45.9248 75.7405 46.6708 76.6607 46.6708C77.5811 46.6708 78.3271 45.9248 78.3271 45.0045C78.3132 33.0457 68.6223 23.3547 56.6637 23.3411C55.7433 23.3411 54.9973 24.0871 54.9973 25.0074C54.9973 25.9278 55.7433 26.6738 56.6637 26.6738Z" fill="white"/>
<path d="M56.6637 36.6723C61.263 36.6778 64.9902 40.4049 64.9958 45.0045C64.9958 45.9248 65.742 46.6708 66.6622 46.6708C67.5824 46.6708 68.3286 45.9248 68.3286 45.0045C68.3211 38.5652 63.103 33.3468 56.6637 33.3396C55.7433 33.3396 54.9973 34.0856 54.9973 35.0059C54.9973 35.9263 55.7433 36.6723 56.6637 36.6723Z" fill="white"/>
</g>
<defs>
<clipPath id="clip0">
<rect width="100" height="100" fill="white"/>
</clipPath>
</defs>
</svg>
