<svg width="100" height="100" viewBox="0 0 100 100" fill="none" xmlns="http://www.w3.org/2000/svg">
<g clip-path="url(#clip0)">
<path d="M99.9809 38.2295C99.9705 38.1146 99.9477 38.0011 99.9125 37.8912C99.8897 37.7929 99.8578 37.697 99.8176 37.6044C99.7709 37.514 99.7151 37.4284 99.651 37.3493C99.5867 37.2554 99.5123 37.1689 99.4293 37.0909C99.4025 37.0677 99.391 37.0359 99.3627 37.0126L83.3336 24.5637V11.6615C83.3336 8.90005 81.0948 6.66126 78.3333 6.66126H60.2707L53.0385 1.04594C51.2519 -0.347492 48.7465 -0.347492 46.9598 1.04594L39.7261 6.66126H21.6634C18.902 6.66126 16.6632 8.89985 16.6632 11.6615V24.5639L0.639125 37.0128C0.610804 37.0362 0.599084 37.0679 0.572521 37.0911C0.489508 37.1689 0.415091 37.2556 0.35083 37.3495C0.286764 37.4286 0.230902 37.514 0.18422 37.6046C0.143788 37.697 0.112146 37.7931 0.0892928 37.8914C0.0545254 37.9998 0.0316727 38.1115 0.02093 38.2248C0.02093 38.2597 0.00100708 38.2898 0.00100708 38.3248V94.999C0.00335095 96.0592 0.346337 97.0905 0.979377 97.9407C0.989339 97.9557 0.991096 97.9741 1.00262 97.9874C1.01434 98.0007 1.03934 98.0157 1.05594 98.0341C1.99232 99.2662 3.44864 99.9926 4.99618 99.9992H95.0008C96.5543 99.9945 98.0167 99.2646 98.9543 98.0259C98.9676 98.0093 98.9877 98.0042 98.9992 97.9876C99.0109 97.971 99.0125 97.9559 99.0226 97.9409C99.6557 97.0905 99.9987 96.0592 100.001 94.9992V38.3295C100.001 38.2945 99.9826 38.2644 99.9809 38.2295ZM48.9982 3.67596C49.5803 3.21343 50.4045 3.21343 50.9866 3.67596L54.8317 6.66107H45.1646L48.9982 3.67596ZM5.41613 96.6658L48.9984 62.8124C49.5809 62.3506 50.4045 62.3506 50.9868 62.8124L94.5806 96.6658H5.41613ZM96.6674 94.0673L53.0385 60.1821C51.2515 58.7899 48.7468 58.7899 46.9598 60.1821L3.3293 94.0673V40.8679L30.6424 62.0774C31.3702 62.6417 32.4175 62.5092 32.9818 61.7814C33.5461 61.0537 33.4136 60.0064 32.6859 59.4421L4.93778 37.8961L16.6634 28.7839V41.6628C16.6634 42.5834 17.4097 43.3295 18.3301 43.3295C19.2506 43.3295 19.9967 42.5832 19.9967 41.6628V11.6613C19.9967 10.7408 20.7429 9.99463 21.6634 9.99463H78.3329C79.2535 9.99463 79.9996 10.7408 79.9996 11.6613V41.6628C79.9996 42.5834 80.7457 43.3295 81.6663 43.3295C82.5868 43.3295 83.333 42.5832 83.333 41.6628V28.7839L95.0586 37.8961L67.2622 59.4805C66.7841 59.8429 66.5374 60.4343 66.6167 61.0291C66.696 61.6238 67.0888 62.1301 67.6453 62.3545C68.2017 62.579 68.8359 62.4871 69.3057 62.1139L96.6671 40.8679V94.0673H96.6674Z" fill="white"/>
<path d="M69.9985 39.9962V33.3292C69.9985 22.283 61.0437 13.3282 49.9975 13.3282C38.9512 13.3282 29.9965 22.283 29.9965 33.3292C29.9965 44.3755 38.9512 53.3302 49.9975 53.3302C50.918 53.3302 51.6642 52.5841 51.6642 51.6636C51.6642 50.743 50.918 49.9969 49.9975 49.9969C40.7923 49.9969 33.33 42.5346 33.33 33.3294C33.33 24.1243 40.7923 16.662 49.9975 16.662C59.2026 16.662 66.6649 24.1243 66.6649 33.3294V39.9964C66.6649 41.8375 65.1725 43.3299 63.3314 43.3299C61.4903 43.3299 59.9978 41.8375 59.9978 39.9964V33.3294C59.9978 32.4089 59.2517 31.6627 58.3311 31.6627C57.4106 31.6627 56.6644 32.4089 56.6644 33.3294C56.6644 37.0114 53.6795 39.9964 49.9975 39.9964C46.3155 39.9964 43.3305 37.0114 43.3305 33.3294C43.3305 29.6474 46.3155 26.6625 49.9975 26.6625C50.918 26.6625 51.6642 25.9164 51.6642 24.9958C51.6642 24.0752 50.918 23.3291 49.9975 23.3291C45.5217 23.3192 41.5842 26.2843 40.3575 30.5889C39.1309 34.8934 40.9136 39.4887 44.7224 41.8396C48.5312 44.1905 53.4381 43.7245 56.7361 40.6984C57.099 44.2231 60.1626 46.844 63.7011 46.6567C67.2398 46.4692 70.0096 43.5397 69.9985 39.9962Z" fill="white"/>
</g>
<defs>
<clipPath id="clip0">
<rect width="100" height="100" fill="white"/>
</clipPath>
</defs>
</svg>
