<svg width="100" height="100" viewBox="0 0 100 100" fill="none" xmlns="http://www.w3.org/2000/svg">
<path d="M67.4638 20.9312L57.9396 7.70409C57.5726 7.19433 56.9827 6.89218 56.3546 6.89218C55.7265 6.89218 55.1366 7.19433 54.7697 7.70409L45.2455 20.9312C45.006 21.2636 44.8773 21.6629 44.8773 22.0724V22.3843V85.7659C44.8773 89.7959 48.156 93.0746 52.1861 93.0746H60.523C64.5532 93.0746 67.8319 89.7959 67.8319 85.7659V22.3843V22.0724C67.8319 21.6629 67.7032 21.2634 67.4638 20.9312ZM56.3546 12.1879L62.2903 20.4312H50.4191L56.3546 12.1879ZM48.7835 24.3375H58.057V74.9264H54.6517V37.6199C54.6519 36.541 53.7775 35.6665 52.6988 35.6665C51.6202 35.6665 50.7456 36.541 50.7456 37.6197V74.9262H48.7835V24.3375ZM63.9257 85.7657C63.9257 87.6418 62.3993 89.1682 60.523 89.1682H52.1861C50.3101 89.1682 48.7835 87.6418 48.7835 85.7657V78.8325H63.9257V85.7657ZM63.9257 74.9264H61.9634V24.3375H63.9257V74.9264Z" fill="white"/>
<path d="M54.6132 29.3945C54.5878 29.2714 54.5507 29.1484 54.5019 29.0292C54.453 28.912 54.3925 28.7988 54.3222 28.6933C54.2519 28.5859 54.1698 28.4863 54.08 28.3964C53.9901 28.3066 53.8905 28.2245 53.7831 28.1523C53.6776 28.082 53.5644 28.0234 53.4452 27.9745C53.328 27.9257 53.2052 27.8867 53.08 27.8613C52.828 27.8124 52.5683 27.8124 52.3163 27.8613C52.1933 27.8867 52.0702 27.9257 51.9513 27.9745C51.8339 28.0234 51.7206 28.082 51.6151 28.1523C51.5077 28.2245 51.4081 28.3066 51.3183 28.3964C51.2284 28.4863 51.1464 28.5859 51.0741 28.6933C51.0038 28.7988 50.9433 28.912 50.8944 29.0292C50.8456 29.1484 50.8085 29.2714 50.7831 29.3945C50.7577 29.5214 50.746 29.6503 50.746 29.7773C50.746 30.291 50.955 30.7949 51.3185 31.1581C51.6815 31.5214 52.1855 31.7304 52.6991 31.7304C52.8261 31.7304 52.9552 31.7167 53.08 31.6913C53.2052 31.6659 53.3282 31.6288 53.4452 31.58C53.5644 31.5312 53.6776 31.4706 53.7831 31.4003C53.8905 31.33 53.9901 31.248 54.08 31.1581C54.1698 31.0683 54.2519 30.9687 54.3222 30.8613C54.3925 30.7558 54.453 30.6425 54.5019 30.5234C54.5507 30.4062 54.5878 30.2831 54.6132 30.1581C54.6386 30.0331 54.6521 29.9042 54.6521 29.7773C54.6521 29.6503 54.6386 29.5214 54.6132 29.3945Z" fill="white"/>
<path d="M18.997 43.4712L18.9964 43.1735C18.9966 41.6343 20.249 40.382 21.7882 40.382C21.8158 40.382 21.8433 40.3814 21.8709 40.3802L27.8201 40.1284C31.2941 40.104 34.113 37.2702 34.113 33.7904C34.113 30.2955 31.2697 27.4523 27.7749 27.4523H14.4826C13.1418 27.4523 12.0508 26.3613 12.0508 25.0203C12.0508 24.3714 12.3066 23.7623 12.7711 23.305C13.2166 22.8662 13.799 22.6259 14.4142 22.6259C14.4369 22.6259 14.4599 22.6265 14.4826 22.6265L26.1128 22.6261C30.4507 22.6261 33.9796 19.0968 33.9796 14.759C33.9796 10.4211 30.4505 6.89198 26.1126 6.89198H12.8826C11.8041 6.89198 10.9295 7.7664 10.9295 8.8451C10.9295 9.92381 11.8041 10.7982 12.8826 10.7982H26.1126C28.2966 10.7982 30.0734 12.575 30.0734 14.759C30.0734 16.9429 28.2966 18.7197 26.1128 18.7199L14.4965 18.7203C12.8234 18.6972 11.2332 19.3373 10.0308 20.5211C8.81444 21.7187 8.14452 23.3164 8.14452 25.0205C8.14452 28.5154 10.9879 31.3587 14.4826 31.3587H27.7747C29.1156 31.3587 30.2066 32.4495 30.2066 33.7906C30.2066 35.1316 29.1156 36.2226 27.7747 36.2226C27.7472 36.2226 27.7197 36.2232 27.6921 36.2243L21.7435 36.4761C18.0707 36.5001 15.0904 39.4954 15.0904 43.1777L15.091 43.4724C6.60917 44.446 0 51.6685 0 60.4069V76.06C0 85.4602 7.64764 93.1078 17.0478 93.1078C26.448 93.1078 34.0956 85.4602 34.0956 76.06V60.4069C34.0956 51.6659 27.4826 44.4415 18.997 43.4712ZM3.90624 60.4069C3.90624 53.8239 8.77108 48.3562 15.0947 47.4101V63.3401H3.90624V60.4069ZM30.1894 76.06C30.1894 83.3063 24.2941 89.2016 17.0478 89.2016C9.80154 89.2016 3.90624 83.3063 3.90624 76.06V67.2466H30.1894V76.06ZM30.1894 63.3401H19.0009V47.4101C25.3246 48.3562 30.1894 53.8239 30.1894 60.4069V63.3401Z" fill="white"/>
<path d="M7.27713 8.46287C7.25174 8.33983 7.21463 8.21678 7.1658 8.09764C7.11697 7.98045 7.05642 7.86717 6.98611 7.7617C6.916 7.65428 6.83396 7.55467 6.74412 7.46483C6.38084 7.10155 5.87694 6.89256 5.36326 6.89256C4.84959 6.89256 4.34569 7.10155 3.98241 7.46483C3.89256 7.55467 3.81053 7.65428 3.74022 7.7617C3.66815 7.86717 3.60936 7.98045 3.56053 8.09764C3.50975 8.21678 3.47284 8.33983 3.44725 8.46287C3.42186 8.58983 3.41034 8.71873 3.41034 8.84568C3.41034 8.97264 3.42206 9.10154 3.44725 9.22654C3.47264 9.35154 3.50975 9.47459 3.56034 9.59178C3.60917 9.71092 3.66796 9.8242 3.74003 9.92967C3.81034 10.0371 3.89237 10.1367 3.98221 10.2265C4.07206 10.3164 4.17167 10.3984 4.27928 10.4687C4.38475 10.539 4.49803 10.5996 4.61522 10.6484C4.73436 10.6972 4.85741 10.7344 4.98241 10.7597C5.10741 10.7851 5.23631 10.7988 5.36326 10.7988C5.87694 10.7988 6.38084 10.5898 6.74412 10.2265C6.83396 10.1367 6.916 10.0371 6.98611 9.92967C7.05642 9.8242 7.11697 9.71092 7.1658 9.59178C7.21463 9.47459 7.25174 9.35154 7.27713 9.22654C7.30252 9.10154 7.31619 8.97264 7.31619 8.84568C7.31619 8.71873 7.30252 8.58983 7.27713 8.46287Z" fill="white"/>
<path d="M99.9852 26.3804C99.7694 21.7716 97.4477 19.4906 95.5821 17.6578C93.5637 15.6746 92.3453 14.4775 93.4957 10.5543C94.0166 8.7781 93.2992 7.84549 92.825 7.44764C92.235 6.95271 91.1821 6.53592 89.5141 7.3615C87.353 8.43142 84.0727 11.5769 81.5371 15.0103C79.2092 18.1628 76.4793 22.8835 76.6942 27.471C76.8549 30.9015 78.3094 34.047 80.6838 36.2595C79.5104 37.8431 78.8149 39.8011 78.8149 41.9189C78.8149 43.2624 79.0887 44.5431 79.5868 45.7056V83.874C79.5868 88.5195 83.3662 92.2988 88.0116 92.2988C92.6569 92.2988 96.4364 88.5195 96.4364 83.874V46.9669C97.3469 45.5003 97.867 43.7694 97.867 41.9189C97.8672 39.8265 97.1875 37.8909 96.0397 36.3177C98.6883 33.8593 100.165 30.2325 99.9852 26.3804ZM92.5301 83.8738C92.5303 86.3654 90.5033 88.3924 88.0117 88.3924C85.5201 88.3924 83.4932 86.3654 83.4932 83.8738V50.1319C84.5075 50.7261 85.6479 51.1425 86.8785 51.3325C86.9772 51.3477 87.0768 51.3554 87.1764 51.3554H89.5057C89.6055 51.3554 89.7051 51.3477 89.8035 51.3325C89.9323 51.3126 90.0604 51.2895 90.1879 51.2643C90.2694 51.2485 90.3496 51.2302 90.4303 51.2124C90.4651 51.2046 90.5 51.1972 90.5348 51.189C91.236 51.0253 91.9035 50.7872 92.5301 50.4839V83.8738V83.8738ZM90.9811 46.8767C90.9727 46.8808 90.9647 46.8851 90.9567 46.8894C90.9004 46.9192 90.8436 46.9477 90.7862 46.9759C90.759 46.9892 90.7317 47.002 90.7041 47.0149C90.6604 47.0354 90.6164 47.0554 90.5723 47.0747C90.5307 47.0929 90.4887 47.1102 90.4467 47.1274C90.4125 47.1413 90.3785 47.1554 90.3442 47.1686C90.292 47.1888 90.2393 47.2075 90.1866 47.2261C90.1592 47.2356 90.1321 47.2456 90.1045 47.2548C90.045 47.2745 89.985 47.2929 89.9248 47.3106C89.902 47.3175 89.8793 47.3247 89.8563 47.3313C89.7907 47.3499 89.7244 47.3665 89.658 47.3825C89.6393 47.387 89.6209 47.3923 89.6022 47.3966C89.5168 47.4163 89.4311 47.4341 89.3448 47.4497H87.3383C87.3364 47.4493 87.3344 47.4489 87.3325 47.4485C87.2381 47.4315 87.145 47.4112 87.0522 47.3894C87.0151 47.3806 86.9783 47.371 86.9414 47.3614C86.8862 47.3472 86.8311 47.3321 86.7764 47.3161C86.7303 47.3026 86.684 47.2893 86.6383 47.2747C86.6037 47.2638 86.5696 47.2515 86.5352 47.2397C84.3067 46.4772 82.7217 44.3384 82.7217 41.9191C82.7217 40.1077 83.584 38.4948 84.9186 37.4663C84.97 37.4267 85.0221 37.3882 85.0746 37.3505C85.1645 37.2861 85.2563 37.2241 85.35 37.165C85.391 37.139 85.4323 37.1132 85.4739 37.0884C85.6034 37.0112 85.736 36.939 85.8719 36.8722C85.8852 36.8655 85.8985 36.8585 85.9117 36.8521C85.9905 36.8142 86.0703 36.778 86.151 36.7437C86.1643 36.738 86.1778 36.7331 86.191 36.7277C86.3313 36.6693 86.4744 36.6169 86.6201 36.5698C86.6653 36.5554 86.7104 36.5417 86.7559 36.5284C86.8545 36.4993 86.9543 36.4732 87.0553 36.4493C87.1323 36.4314 87.2096 36.4144 87.2875 36.3997C87.3405 36.3896 87.3934 36.3798 87.4467 36.3712C87.569 36.3519 87.6922 36.3359 87.8166 36.3245C87.8502 36.3214 87.8842 36.3193 87.918 36.3167C88.0584 36.3064 88.1994 36.2991 88.3418 36.2991C88.4864 36.2991 88.6291 36.3068 88.7713 36.3173C88.8049 36.3198 88.8387 36.3218 88.8721 36.3249C88.9967 36.3364 89.1201 36.3529 89.2426 36.3724C89.2979 36.3814 89.3528 36.3913 89.4076 36.4019C89.4862 36.4167 89.5641 36.4343 89.6416 36.4527C89.7436 36.4769 89.8446 36.5036 89.9442 36.5333C89.9856 36.5456 90.027 36.5585 90.0682 36.5718C90.2082 36.6171 90.3459 36.6677 90.4809 36.7234C90.5008 36.7316 90.5209 36.7394 90.5407 36.7478C90.7774 36.8487 91.0055 36.9659 91.2242 37.0972C91.2727 37.1263 91.3203 37.1568 91.368 37.1874C91.4563 37.2441 91.5428 37.3028 91.6276 37.3642C91.6867 37.4071 91.7453 37.4513 91.8032 37.4968C93.1156 38.5265 93.9614 40.1253 93.9614 41.9191C93.9614 44.0245 92.7614 45.9183 90.9811 46.8767ZM93.1278 33.6829C93.0854 33.6583 93.041 33.6374 92.9985 33.6134C92.8965 33.556 92.793 33.5007 92.6887 33.447C92.6354 33.4197 92.5825 33.3913 92.5285 33.365C92.1807 33.1941 91.8207 33.0448 91.4508 32.9167C91.4303 32.9097 91.41 32.9029 91.3895 32.8958C91.2043 32.8331 91.0168 32.7751 90.8268 32.7238C90.826 32.7236 90.8252 32.7234 90.8242 32.723C90.4393 32.6189 90.045 32.539 89.6424 32.4837C89.6057 32.4786 89.5688 32.4743 89.5321 32.4697C89.3766 32.4501 89.2201 32.4345 89.0625 32.4228C89.0155 32.4193 88.9686 32.415 88.9215 32.412C88.7293 32.4005 88.5362 32.3927 88.3412 32.3927C88.1483 32.3927 87.9571 32.4003 87.7668 32.4116C87.7213 32.4144 87.676 32.4187 87.6305 32.422C87.4744 32.4335 87.3194 32.4488 87.1655 32.4679C87.1293 32.4724 87.0934 32.4767 87.0573 32.4818C86.4612 32.5624 85.8827 32.6986 85.3264 32.8847C85.3106 32.89 85.295 32.8952 85.2793 32.9007C85.1032 32.9607 84.9289 33.0251 84.7575 33.095C84.7432 33.1009 84.7287 33.1062 84.7145 33.112C84.5356 33.1861 84.359 33.2644 84.1856 33.3488C84.1479 33.3671 84.1112 33.3874 84.0737 33.4062C83.9551 33.4657 83.8377 33.5273 83.7221 33.5917C83.6883 33.6105 83.6532 33.6267 83.6196 33.6458C81.8235 32.1175 80.7149 29.8206 80.5963 27.2884C80.4651 24.4884 82.1065 20.6562 85.0994 16.7744C86.5996 14.8287 88.045 13.3597 89.1889 12.3615C88.8649 16.5339 91.0373 18.6685 92.8446 20.4441C94.5051 22.0755 95.9391 23.4843 96.0832 26.563C96.2151 29.3775 95.1028 32.0029 93.1278 33.6829Z" fill="white"/>
</svg>
