<svg width="100" height="100" viewBox="0 0 100 100" fill="none" xmlns="http://www.w3.org/2000/svg">
<path d="M94.3328 45.4018C94.1146 43.3697 92.3995 41.8289 90.3557 41.8289H74.1389C73.1338 41.8289 72.3213 42.6414 72.3213 43.6465C72.3213 44.6517 73.1338 45.4641 74.1389 45.4641H87.0894C89.1332 45.4641 90.8483 47.0049 91.0665 49.0371L95.4768 90.1128C95.7307 92.4774 93.8778 94.5399 91.4997 94.5399H8.65816C6.25052 94.5399 4.38848 92.4284 4.68955 90.0397L9.86662 48.9639C10.1187 46.964 11.8195 45.4641 13.8352 45.4641H26.8808C27.8859 45.4641 28.6984 44.6517 28.6984 43.6465C28.6984 42.6414 27.8859 41.8289 26.8808 41.8289H10.629C8.61321 41.8289 6.91241 43.3288 6.66035 45.3287L0.567167 93.6749C0.266111 96.0637 2.12815 98.1751 4.53577 98.1751H95.5475C97.9256 98.1751 99.7785 96.1126 99.5246 93.748L94.3328 45.4018Z" fill="white"/>
<path d="M48.4468 70.829C48.1797 70.9872 47.8943 71.1271 47.638 71.2925C47.2381 71.5506 46.8473 71.8215 46.4638 72.1014C45.655 72.6957 45.4805 73.8336 46.073 74.6424C46.4293 75.1277 46.9818 75.384 47.5417 75.384C47.9143 75.384 48.2905 75.2695 48.6159 75.0332C48.9394 74.7951 49.2684 74.5661 49.6119 74.3443C50.1954 73.9662 50.8152 73.6118 51.455 73.2883C52.3057 72.8575 52.651 71.8505 52.2947 70.9817C52.3093 70.9672 52.3275 70.9563 52.3402 70.9417C55.6283 67.4592 66.7085 54.4087 71.2961 32.6663C72.2268 28.2567 72.4358 24.0253 71.9178 20.0902C70.3546 8.13932 62.9296 1.82127 50.4462 1.82127C37.9664 1.82127 30.5415 8.13932 28.9747 20.0902C28.4585 24.0271 28.6675 28.2586 29.5981 32.6663C34.1404 54.1978 45.0461 67.1974 48.4468 70.829ZM32.579 20.5646C33.9113 10.4004 39.7568 5.45832 50.448 5.45832C61.1411 5.45832 66.9848 10.4004 68.3152 20.5646C68.7787 24.0907 68.5843 27.9132 67.7409 31.9192C63.6167 51.4641 53.7834 63.8657 50.448 67.6282C47.1091 63.8621 37.2776 51.455 33.1552 31.9192C32.31 27.9132 32.1173 24.0926 32.579 20.5646Z" fill="white"/>
<path d="M50.448 36.2161C57.8112 36.2161 63.8003 30.227 63.8003 22.8638C63.8003 15.5007 57.8112 9.51161 50.448 9.51161C43.0849 9.51161 37.0958 15.5007 37.0958 22.8638C37.0958 30.227 43.0849 36.2161 50.448 36.2161ZM50.448 13.1487C55.8046 13.1487 60.165 17.5073 60.165 22.8657C60.165 28.224 55.8064 32.5827 50.448 32.5827C45.0897 32.5827 40.7311 28.224 40.7311 22.8657C40.7311 17.5073 45.0915 13.1487 50.448 13.1487Z" fill="white"/>
<path d="M57.1242 67.561C56.1426 67.7682 55.5174 68.7351 55.7264 69.7185C55.9082 70.5728 56.6625 71.1562 57.5022 71.1562C57.6276 71.1562 57.7567 71.1435 57.8839 71.1162C58.9491 70.8908 60.1032 70.7 61.312 70.5473C62.308 70.4255 63.0169 69.5167 62.8915 68.5207C62.7679 67.5228 61.8682 66.803 60.8648 66.9411C59.5507 67.1029 58.2911 67.3119 57.1242 67.561Z" fill="white"/>
<path d="M66.5231 68.2989C66.5631 69.275 67.3701 70.0384 68.3371 70.0384C68.3643 70.0384 68.3898 70.0384 68.417 70.0365L72.0541 69.8857C73.0556 69.8402 73.8335 68.9896 73.7863 67.9881C73.7408 66.9829 72.8066 66.1995 71.8887 66.2541L68.2607 66.4049C67.2574 66.4467 66.4795 67.2937 66.5231 68.2989Z" fill="white"/>
<path d="M40.7747 76.6618C39.8404 77.367 38.8753 78.045 37.9028 78.6739C37.0613 79.221 36.8213 80.3461 37.3685 81.1895C37.7156 81.7257 38.3009 82.0165 38.8953 82.0165C39.2351 82.0165 39.5769 81.922 39.884 81.7239C40.9255 81.0477 41.9634 80.3206 42.9649 79.5645C43.7647 78.9592 43.9246 77.8196 43.3212 77.018C42.7159 76.2237 41.5799 76.0565 40.7747 76.6618Z" fill="white"/>
<path d="M81.284 64.6764C80.6696 65.1072 79.8717 65.4198 78.8375 65.6325C77.8541 65.8342 77.2216 66.7976 77.4252 67.7809C77.6033 68.6406 78.3594 69.2313 79.2046 69.2313C79.3264 69.2313 79.45 69.2186 79.5736 69.1932C81.104 68.8769 82.3473 68.3716 83.3833 67.6427L83.6269 67.4646C84.4266 66.8575 84.5848 65.7179 83.9795 64.9181C83.3724 64.1184 82.2346 63.9621 81.433 64.5655L81.284 64.6764Z" fill="white"/>
<path d="M16.1041 78.8884C16.3677 77.9196 15.7933 76.9217 14.8245 76.66C13.863 76.3891 12.8578 76.9671 12.5961 77.9396C12.3671 78.7829 12.2308 79.6445 12.1871 80.4933C12.1781 80.7024 12.1726 80.9132 12.1726 81.135C12.1744 81.4912 12.1908 81.8475 12.2253 82.2019C12.3217 83.138 13.1105 83.8341 14.032 83.8341C14.092 83.8341 14.1538 83.8305 14.2192 83.825C15.2171 83.7214 15.9442 82.8308 15.8442 81.8311C15.8188 81.593 15.8097 81.3512 15.8078 81.1222C15.8078 80.9714 15.8133 80.8205 15.8206 80.6715C15.8497 80.0825 15.9442 79.4809 16.1041 78.8884Z" fill="white"/>
<path d="M81.244 50.548C79.8008 50.3554 78.3285 50.4735 76.9071 50.877C75.9402 51.1478 75.3785 52.153 75.653 53.1181C75.8784 53.9197 76.6072 54.4432 77.3997 54.4432C77.5651 54.4432 77.7305 54.4214 77.8941 54.3741C78.8393 54.1087 79.8117 54.0251 80.7569 54.1524C81.7784 54.2796 82.669 53.5871 82.8017 52.5947C82.9362 51.5968 82.2382 50.6825 81.244 50.548Z" fill="white"/>
<path d="M84.861 59.5525C84.5648 60.5104 85.1028 61.5301 86.0607 61.8246C86.2406 61.8809 86.4187 61.9063 86.5969 61.9063C87.3748 61.9063 88.0928 61.4065 88.3327 60.6249C88.5126 60.0469 88.6235 59.4598 88.6653 58.8746C88.6744 58.7237 88.6799 58.571 88.6799 58.4201C88.6799 57.5695 88.5235 56.717 88.2164 55.89C87.8674 54.9467 86.815 54.4705 85.8807 54.8176C84.9374 55.1666 84.4594 56.2136 84.8083 57.1533C84.9646 57.575 85.0446 58.0021 85.0446 58.4183L85.0392 58.631C85.0174 58.9327 84.9592 59.2344 84.861 59.5525Z" fill="white"/>
<path d="M31.7738 82.091C30.7087 82.5909 29.6236 83.0543 28.5494 83.4706C27.6133 83.8305 27.148 84.8829 27.5097 85.8208C27.7878 86.5405 28.4748 86.984 29.2055 86.984C29.4236 86.984 29.6454 86.9459 29.8599 86.8623C31.0141 86.4169 32.1773 85.9189 33.3188 85.3845C34.2276 84.9592 34.6184 83.8759 34.1913 82.9671C33.7677 82.0565 32.6881 81.6621 31.7738 82.091Z" fill="white"/>
<path d="M18.5415 74.5243C18.8342 74.5243 19.1323 74.4534 19.4104 74.3025C19.9338 74.0171 20.4919 73.839 21.0662 73.7772C21.3116 73.7481 21.5624 73.7481 21.8042 73.7808C22.8275 73.9135 23.7127 73.2119 23.8435 72.2177C23.9744 71.2216 23.2746 70.3092 22.2804 70.1783C21.7387 70.1074 21.188 70.1038 20.6609 70.1638C19.6176 70.2783 18.6106 70.5982 17.6691 71.1108C16.7875 71.5924 16.4622 72.6939 16.9439 73.5755C17.2747 74.1825 17.8981 74.5243 18.5415 74.5243Z" fill="white"/>
<path d="M18.1635 88.7762C18.5561 88.878 18.956 88.9543 19.3522 89.0016C19.8175 89.058 20.2828 89.087 20.75 89.087C21.3189 89.087 21.8896 89.047 22.4585 88.9743C23.4546 88.8489 24.1616 87.9401 24.0344 86.9441C23.9072 85.948 23.0038 85.2464 22.0041 85.3682C21.2698 85.4627 20.5282 85.4845 19.7939 85.3954C19.554 85.3645 19.314 85.3191 19.0777 85.2591C18.1053 84.9992 17.1147 85.5881 16.8602 86.5605C16.6112 87.533 17.1929 88.5254 18.1635 88.7762Z" fill="white"/>
</svg>
