<svg width="100" height="100" viewBox="0 0 100 100" fill="none" xmlns="http://www.w3.org/2000/svg">
<path d="M98.4375 51.5625C98.4375 41.1109 91.0656 32.3594 81.25 30.2063V9.375C81.25 5.06719 77.7453 1.5625 73.4375 1.5625H32.8125C28.5047 1.5625 25 5.06719 25 9.375V26.5625H15.9672L15.025 30.3375L11.6906 28.3359L3.33438 36.6875L5.33594 40.025L1.5625 40.9672V52.7828L5.3375 53.725L3.33438 57.0625L11.6891 65.4156L15.0234 63.4141L15.9672 67.1875H25V90.625C25 94.9328 28.5047 98.4375 32.8125 98.4375H73.4375C77.7453 98.4375 81.25 94.9328 81.25 90.625V72.9187C91.0656 70.7656 98.4375 62.0141 98.4375 51.5625ZM95.3125 51.5625C95.3125 54.6078 94.5672 57.4766 93.2734 60.0219C92.4062 57.6359 90.4109 55.7594 87.8328 55.1141L81.25 53.4672V53.0937C83.1969 51.6266 84.375 49.3187 84.375 46.8766V43.7516C84.375 41.5687 83.4516 39.4687 81.8406 37.9906C80.2312 36.5172 78.05 35.7766 75.8687 35.9688C71.8766 36.3141 68.75 39.8766 68.75 44.0734V46.875C68.75 49.3172 69.9281 51.625 71.875 53.0922V53.4656L65.2922 55.1125C62.7141 55.7578 60.7188 57.6344 59.8516 60.0203C58.5578 57.4766 57.8125 54.6078 57.8125 51.5625C57.8125 41.2234 66.2234 32.8125 76.5625 32.8125C86.9016 32.8125 95.3125 41.2234 95.3125 51.5625ZM71.875 30.2063C70.8 30.4422 69.7594 30.7672 68.75 31.1547V26.5625H37.5V48.4375H54.9375C54.7891 49.4609 54.6875 50.4984 54.6875 51.5625C54.6875 62.0141 62.0594 70.7656 71.875 72.9187V76.5625H34.375V23.4375H71.875V30.2063ZM55.6094 45.3125H40.625V29.6875H65.625V32.6469C60.8531 35.4172 57.2188 39.9266 55.6094 45.3125ZM32.8125 4.6875H73.4375C76.0219 4.6875 78.125 6.79062 78.125 9.375V14.0625H28.125V9.375C28.125 6.79062 30.2281 4.6875 32.8125 4.6875V4.6875ZM25 54.0187C24.0141 54.4531 22.95 54.6875 21.875 54.6875C17.5672 54.6875 14.0625 51.1828 14.0625 46.875C14.0625 42.5672 17.5672 39.0625 21.875 39.0625C22.95 39.0625 24.0141 39.2969 25 39.7312V54.0187ZM18.4078 64.0625L17.6469 61.0172L17.3297 60.1812L15.5453 59.4562L12.1734 61.4812L7.27031 56.5766L9.29531 53.2031L8.51406 51.2969L4.6875 50.3422V43.4078L8.50938 42.4531L9.29531 40.5469L7.27031 37.1734L12.1734 32.2688L15.5453 34.2937L17.4516 33.5187L18.4078 29.6875H25V36.4141C23.9859 36.1094 22.9359 35.9375 21.875 35.9375C15.8438 35.9375 10.9375 40.8453 10.9375 46.875C10.9375 52.9047 15.8438 57.8125 21.875 57.8125C22.9359 57.8125 23.9859 57.6406 25 57.3359V64.0625H18.4078ZM73.4375 95.3125H32.8125C30.2281 95.3125 28.125 93.2094 28.125 90.625V85.9375H78.125V90.625C78.125 93.2094 76.0219 95.3125 73.4375 95.3125ZM78.125 82.8125H28.125V17.1875H78.125V29.7672C77.6063 29.7297 77.0906 29.6875 76.5625 29.6875C76.0344 29.6875 75.5187 29.7297 75 29.7672V20.3125H31.25V79.6875H75V73.3578C75.5187 73.3953 76.0344 73.4375 76.5625 73.4375C77.0906 73.4375 77.6063 73.3953 78.125 73.3578V82.8125ZM76.5625 70.3125C70.9609 70.3125 65.9391 67.8297 62.5 63.9234V62.6922C62.5 60.5375 63.9609 58.6672 66.05 58.1438L75 55.9078V51.3594L74.2234 50.9078C72.7531 50.0516 71.875 48.5437 71.875 46.875V44.0734C71.875 41.4813 73.7484 39.2891 76.1391 39.0812C77.4797 38.9734 78.75 39.3953 79.7297 40.2938C80.6953 41.1797 81.25 42.4391 81.25 43.75V46.875C81.25 48.5437 80.3719 50.0516 78.9016 50.9078L78.125 51.3594V55.9078L87.075 58.1438C89.1641 58.6672 90.625 60.5375 90.625 62.6922V63.9234C87.1859 67.8297 82.1641 70.3125 76.5625 70.3125Z" fill="white"/>
<path d="M59.375 7.8125H62.5V10.9375H59.375V7.8125Z" fill="white"/>
<path d="M43.75 7.8125H56.25V10.9375H43.75V7.8125Z" fill="white"/>
<path d="M46.875 89.0625H59.375V92.1875H46.875V89.0625Z" fill="white"/>
<path d="M68.75 89.0625H71.875V92.1875H68.75V89.0625Z" fill="white"/>
<path d="M34.375 89.0625H37.5V92.1875H34.375V89.0625Z" fill="white"/>
<path d="M37.5 51.5625H51.5625V54.6875H37.5V51.5625Z" fill="white"/>
<path d="M37.5 57.8125H51.5625V60.9375H37.5V57.8125Z" fill="white"/>
<path d="M37.5 64.0625H51.5625V67.1875H37.5V64.0625Z" fill="white"/>
<path d="M37.5 70.3125H51.5625V73.4375H37.5V70.3125Z" fill="white"/>
<path d="M89.0625 29.6875C91.6469 29.6875 93.75 27.5844 93.75 25C93.75 22.9656 92.4391 21.2469 90.625 20.6V7.8125H87.5V20.6C85.6859 21.2469 84.375 22.9656 84.375 25C84.375 27.5844 86.4781 29.6875 89.0625 29.6875ZM89.0625 23.4375C89.9234 23.4375 90.625 24.1375 90.625 25C90.625 25.8625 89.9234 26.5625 89.0625 26.5625C88.2016 26.5625 87.5 25.8625 87.5 25C87.5 24.1375 88.2016 23.4375 89.0625 23.4375Z" fill="white"/>
<path d="M87.5 1.5625H90.625V4.6875H87.5V1.5625Z" fill="white"/>
<path d="M17.1875 70.3125C14.6031 70.3125 12.5 72.4156 12.5 75C12.5 77.0344 13.8109 78.7531 15.625 79.4V92.1875H18.75V79.4C20.5641 78.7531 21.875 77.0344 21.875 75C21.875 72.4156 19.7719 70.3125 17.1875 70.3125ZM17.1875 76.5625C16.3266 76.5625 15.625 75.8625 15.625 75C15.625 74.1375 16.3266 73.4375 17.1875 73.4375C18.0484 73.4375 18.75 74.1375 18.75 75C18.75 75.8625 18.0484 76.5625 17.1875 76.5625Z" fill="white"/>
<path d="M15.625 95.3125H18.75V98.4375H15.625V95.3125Z" fill="white"/>
</svg>
