<svg width="100" height="100" viewBox="0 0 100 100" fill="none" xmlns="http://www.w3.org/2000/svg">
<g clip-path="url(#clip0)">
<path d="M8.97293 28.8651H13.1371C13.945 28.8651 14.6004 28.2097 14.6004 27.4017C14.6004 26.593 13.945 25.9377 13.1371 25.9377H8.97293C8.16422 25.9377 7.50885 26.593 7.50885 27.4017C7.50885 28.2097 8.16422 28.8651 8.97293 28.8651Z" fill="white"/>
<path d="M43.2068 25.9377H17.8001C16.9922 25.9377 16.3368 26.593 16.3368 27.4017C16.3368 28.2097 16.9922 28.8651 17.8001 28.8651H43.2068C44.0155 28.8651 44.6709 28.2097 44.6709 27.4017C44.6709 26.593 44.0155 25.9377 43.2068 25.9377Z" fill="white"/>
<path d="M39.3478 33.3565H30.0568C29.248 33.3565 28.5927 34.0111 28.5927 34.8198C28.5927 35.6285 29.248 36.2831 30.0568 36.2831H39.3478C40.1558 36.2831 40.8112 35.6285 40.8112 34.8198C40.8112 34.0111 40.1558 33.3565 39.3478 33.3565Z" fill="white"/>
<path d="M25.1968 33.3565H22.3007C21.4928 33.3565 20.8374 34.0111 20.8374 34.8198C20.8374 35.6285 21.4928 36.2831 22.3007 36.2831H25.1968C26.0056 36.2831 26.6609 35.6285 26.6609 34.8198C26.6609 34.0111 26.0056 33.3565 25.1968 33.3565Z" fill="white"/>
<path d="M17.6399 33.3565H8.97293C8.16422 33.3565 7.50885 34.0111 7.50885 34.8198C7.50885 35.6285 8.16422 36.2831 8.97293 36.2831H17.6399C18.4479 36.2831 19.1032 35.6285 19.1032 34.8198C19.1032 34.0111 18.4479 33.3565 17.6399 33.3565Z" fill="white"/>
<path d="M6.49872 9.91287C6.49872 12.281 8.42514 14.2075 10.7933 14.2075C13.1615 14.2075 15.0887 12.281 15.0887 9.91287C15.0887 7.54471 13.1615 5.61752 10.7933 5.61752C8.42514 5.61752 6.49872 7.54471 6.49872 9.91287ZM12.1613 9.91287C12.1613 10.6667 11.5471 11.2808 10.7933 11.2808C10.0388 11.2808 9.42535 10.6667 9.42535 9.91287C9.42535 9.15833 10.0388 8.54492 10.7933 8.54492C11.5471 8.54492 12.1613 9.15833 12.1613 9.91287Z" fill="white"/>
<path d="M17.4332 9.91287C17.4332 12.281 19.3604 14.2075 21.7285 14.2075C24.0967 14.2075 26.0231 12.281 26.0231 9.91287C26.0231 7.54471 24.0967 5.61752 21.7285 5.61752C19.3604 5.61752 17.4332 7.54471 17.4332 9.91287ZM23.0957 9.91287C23.0957 10.6667 22.4823 11.2808 21.7278 11.2808C20.974 11.2808 20.3598 10.6667 20.3598 9.91287C20.3598 9.15833 20.974 8.54492 21.7278 8.54492C22.4823 8.54492 23.0957 9.15833 23.0957 9.91287Z" fill="white"/>
<path d="M28.3684 9.91287C28.3684 12.281 30.2948 14.2075 32.663 14.2075C35.0311 14.2075 36.9576 12.281 36.9576 9.91287C36.9576 7.54471 35.0311 5.61752 32.663 5.61752C30.2948 5.61752 28.3684 7.54471 28.3684 9.91287ZM34.0309 9.91287C34.0309 10.6667 33.4175 11.2808 32.663 11.2808C31.9092 11.2808 31.295 10.6667 31.295 9.91287C31.295 9.15833 31.9092 8.54492 32.663 8.54492C33.4175 8.54492 34.0309 9.15833 34.0309 9.91287Z" fill="white"/>
<path d="M81.3393 96.2341H86.2244C87.0323 96.2341 87.6877 95.5788 87.6877 94.7708C87.6877 93.9621 87.0323 93.3067 86.2244 93.3067H81.3393C80.5305 93.3067 79.8752 93.9621 79.8752 94.7708C79.8752 95.5788 80.5305 96.2341 81.3393 96.2341V96.2341Z" fill="white"/>
<path d="M80.9135 45.6741H79.229C78.421 45.6741 77.7657 46.3287 77.7657 47.1375C77.7657 47.9462 78.421 48.6008 79.229 48.6008H80.9135C81.7223 48.6008 82.3776 47.9462 82.3776 47.1375C82.3776 46.3287 81.7223 45.6741 80.9135 45.6741Z" fill="white"/>
<path d="M88.3339 45.6741H85.0235C84.2155 45.6741 83.5602 46.3287 83.5602 47.1375C83.5602 47.9462 84.2155 48.6008 85.0235 48.6008H88.3339C89.1418 48.6008 89.7972 47.9462 89.7972 47.1375C89.7972 46.3287 89.1418 45.6741 88.3339 45.6741V45.6741Z" fill="white"/>
<path d="M99.8886 6.4415C99.8886 2.89001 96.9994 0 93.4479 0H80.9616C80.1529 0 79.4983 0.655365 79.4983 1.46332C79.4983 2.27203 80.1529 2.9274 80.9616 2.9274H93.4479C95.3857 2.9274 96.962 4.50363 96.962 6.4415V16.9807H2.9274V6.4415C2.9274 4.50363 4.50363 2.9274 6.4415 2.9274H71.8552C72.6639 2.9274 73.3185 2.27203 73.3185 1.46332C73.3185 0.655365 72.6639 0 71.8552 0H6.4415C2.88925 0 0 2.89001 0 6.4415V77.2552C0 80.8067 2.88925 83.6967 6.4415 83.6967H34.919V88.945H30.5C27.552 88.945 25.1541 91.3437 25.1541 94.2909V97.4525C25.1541 98.7976 26.2482 99.8924 27.5932 99.8924L95.4224 99.9817C97.9469 99.9817 100 97.9279 100 95.4041V90.7738L99.8886 6.4415ZM6.4415 80.7693C4.50363 80.7693 2.9274 79.1931 2.9274 77.2552V71.7041H67.5629V80.7693H6.4415ZM64.9696 83.6967H67.5629V88.945H64.9696V83.6967ZM62.043 83.6967V88.945H37.8456V83.6967H62.043ZM28.0807 96.965V94.2909C28.0807 92.9581 29.1664 91.8724 30.5 91.8724H67.5629V95.4041C67.5629 95.9518 67.6598 96.4775 67.8375 96.965H28.0807ZM97.0726 95.4041C97.0726 96.3142 96.3325 97.0543 95.4224 97.0543H72.1405C71.2303 97.0543 70.4903 96.3142 70.4903 95.4041V92.2371H97.0726V95.4041ZM97.0726 89.3097H70.4903V63.7802C70.4903 62.9723 69.8349 62.3169 69.0269 62.3169C68.2182 62.3169 67.5629 62.9723 67.5629 63.7802V68.7767H2.9274V19.9081H96.962V42.3042C96.4806 42.1318 95.9625 42.0372 95.4224 42.0372H72.1405C69.6167 42.0372 67.5629 44.091 67.5629 46.6148V54.8691C67.5629 55.6778 68.2182 56.3324 69.0269 56.3324C69.8349 56.3324 70.4903 55.6778 70.4903 54.8691V52.7092H97.0726V89.3097ZM97.0726 49.7826H70.4903V46.6148C70.4903 45.7054 71.2303 44.9646 72.1405 44.9646H95.4224C96.3325 44.9646 97.0734 45.7054 97.0734 46.6148V49.7826H97.0726Z" fill="white"/>
<path d="M73.4428 59.919H78.8383C79.6463 59.919 80.3017 59.2636 80.3017 58.4557C80.3017 57.6469 79.6463 56.9916 78.8383 56.9916H73.4428C72.6341 56.9916 71.9795 57.6469 71.9795 58.4557C71.9795 59.2636 72.6341 59.919 73.4428 59.919Z" fill="white"/>
<path d="M83.0307 59.919H85.3325C86.1404 59.919 86.7958 59.2636 86.7958 58.4557C86.7958 57.6469 86.1404 56.9916 85.3325 56.9916H83.0307C82.2227 56.9916 81.5674 57.6469 81.5674 58.4557C81.5674 59.2636 82.2227 59.919 83.0307 59.919V59.919Z" fill="white"/>
<path d="M89.18 59.919H94.12C94.9287 59.919 95.5841 59.2636 95.5841 58.4557C95.5841 57.6469 94.9287 56.9916 94.12 56.9916H89.18C88.372 56.9916 87.7167 57.6469 87.7167 58.4557C87.7167 59.2636 88.372 59.919 89.18 59.919V59.919Z" fill="white"/>
<path d="M73.4428 66.5001H75.8438C76.6525 66.5001 77.3079 65.8447 77.3079 65.036C77.3079 64.2281 76.6525 63.5727 75.8438 63.5727H73.4428C72.6341 63.5727 71.9795 64.2281 71.9795 65.036C71.9795 65.8447 72.6341 66.5001 73.4428 66.5001Z" fill="white"/>
<path d="M88.2172 65.036C88.2172 64.2281 87.5626 63.5727 86.7538 63.5727H79.882C79.0741 63.5727 78.4187 64.2281 78.4187 65.036C78.4187 65.8447 79.0741 66.5001 79.882 66.5001H86.7538C87.5626 66.5001 88.2172 65.8447 88.2172 65.036V65.036Z" fill="white"/>
<path d="M94.12 63.5727H91.4062C90.5983 63.5727 89.9429 64.2281 89.9429 65.036C89.9429 65.8447 90.5983 66.5001 91.4062 66.5001H94.12C94.9287 66.5001 95.5841 65.8447 95.5841 65.036C95.5841 64.2281 94.9287 63.5727 94.12 63.5727V63.5727Z" fill="white"/>
<path d="M73.4428 72.5548H78.2455C79.0535 72.5548 79.7089 71.8994 79.7089 71.0915C79.7089 70.2827 79.0535 69.6274 78.2455 69.6274H73.4428C72.6341 69.6274 71.9795 70.2827 71.9795 71.0915C71.9795 71.8994 72.6341 72.5548 73.4428 72.5548V72.5548Z" fill="white"/>
<path d="M82.2533 72.5548H88.3339C89.1418 72.5548 89.7972 71.8994 89.7972 71.0915C89.7972 70.2827 89.1418 69.6274 88.3339 69.6274H82.2533C81.4445 69.6274 80.7892 70.2827 80.7892 71.0915C80.7892 71.8994 81.4445 72.5548 82.2533 72.5548Z" fill="white"/>
<path d="M94.12 69.6274H92.2523C91.4444 69.6274 90.789 70.2827 90.789 71.0915C90.789 71.8994 91.4444 72.5548 92.2523 72.5548H94.12C94.9287 72.5548 95.5841 71.8994 95.5841 71.0915C95.5841 70.2827 94.9287 69.6274 94.12 69.6274Z" fill="white"/>
<path d="M73.4428 79.1359H80.7892C81.5979 79.1359 82.2533 78.4805 82.2533 77.6718C82.2533 76.8639 81.5979 76.2085 80.7892 76.2085H73.4428C72.6341 76.2085 71.9795 76.8639 71.9795 77.6718C71.9795 78.4805 72.6341 79.1359 73.4428 79.1359V79.1359Z" fill="white"/>
<path d="M86.9324 76.2085H84.9419C84.1339 76.2085 83.4785 76.8639 83.4785 77.6718C83.4785 78.4805 84.1339 79.1359 84.9419 79.1359H86.9324C87.7403 79.1359 88.3957 78.4805 88.3957 77.6718C88.3957 76.8639 87.7403 76.2085 86.9324 76.2085Z" fill="white"/>
<path d="M94.12 76.2085H90.6517C89.8437 76.2085 89.1884 76.8639 89.1884 77.6718C89.1884 78.4805 89.8437 79.1359 90.6517 79.1359H94.12C94.9287 79.1359 95.5841 78.4805 95.5841 77.6718C95.5841 76.8639 94.9287 76.2085 94.12 76.2085Z" fill="white"/>
</g>
<defs>
<clipPath id="clip0">
<rect width="100" height="100" fill="white"/>
</clipPath>
</defs>
</svg>
