<svg width="100" height="100" viewBox="0 0 100 100" fill="none" xmlns="http://www.w3.org/2000/svg">
<g clip-path="url(#clip0)">
<path d="M76.875 76.6667H73.5417V83.3333H43.5417V86.6667H73.5417V91.6667C73.5417 94.4279 71.3029 96.6667 68.5417 96.6667H31.875C30.0887 96.6642 28.4383 95.7121 27.5415 94.1667L24.655 95.8333C26.1491 98.4074 28.8989 99.9943 31.875 100H68.5417C73.1421 99.9943 76.8693 96.2671 76.875 91.6667V76.6667Z" fill="white"/>
<path d="M48.5417 90H51.875V93.3333H48.5417V90Z" fill="white"/>
<path d="M58.5417 45V41.6667H53.457C52.6262 31.0311 44.1773 22.5822 33.5417 21.7513V16.6667H30.2083V21.7513C29.0853 21.8376 27.9712 22.0117 26.875 22.2713V13.3333H53.5417V10H26.875V8.33333C26.875 5.5721 29.1138 3.33333 31.875 3.33333H68.5417C69.7591 3.33333 70.9351 3.77767 71.8482 4.58333L74.0536 2.08333C72.5318 0.739747 70.5713 -0.000813132 68.5417 6.70003e-07H31.875C27.2746 0.00569729 23.5474 3.73291 23.5417 8.33333V23.3333C16.0368 26.4771 10.922 33.5547 10.293 41.6667H5.20834V45H10.297C11.0832 55.6559 19.5524 64.1309 30.2083 64.9235V70H33.5417V64.9235C44.1976 64.1309 52.6668 55.6559 53.453 45H58.5417ZM30.2083 58.3333V61.5902C27.8833 61.381 25.6209 60.7275 23.5417 59.6663V56.6667C23.5417 52.0646 27.273 48.3333 31.875 48.3333C36.4771 48.3333 40.2083 52.0646 40.2083 56.6667V59.6663C38.1299 60.7292 35.8667 61.3835 33.5417 61.5951V58.3333H30.2083ZM26.875 40C26.875 37.2388 29.1138 35 31.875 35C34.6362 35 36.875 37.2388 36.875 40C36.875 42.7612 34.6362 45 31.875 45C29.1138 45 26.875 42.7612 26.875 40ZM44.0967 57.0003C43.9168 57.1663 43.7248 57.2998 43.5417 57.4536V56.6667C43.5376 52.3128 41.1092 48.3236 37.2437 46.32C39.9211 44.0649 40.9033 40.3768 39.703 37.089C38.5026 33.8005 35.3752 31.613 31.875 31.613C28.3748 31.613 25.2474 33.8005 24.047 37.089C22.8467 40.3768 23.8289 44.0649 26.5064 46.32C22.6408 48.3236 20.2124 52.3128 20.2083 56.6667V57.4617C20.0236 57.3104 19.8315 57.168 19.6533 57.0085C16.1995 53.9111 14.047 49.6208 13.6304 45H16.875V41.6667H13.6263C14.4409 32.8678 21.4095 25.8993 30.2083 25.0846V28.3333H33.5417V25.0846C42.3405 25.8993 49.3091 32.8678 50.1237 41.6667H46.875V45H50.1196C49.703 49.6208 47.5505 53.9111 44.0967 57.0085V57.0003Z" fill="white"/>
<path d="M95.2083 30C96.1288 30 96.875 29.2538 96.875 28.3333V8.33334C96.875 7.41293 96.1288 6.66667 95.2083 6.66667H58.5417C57.6213 6.66667 56.875 7.41293 56.875 8.33334V28.3333C56.875 29.2538 57.6213 30 58.5417 30H95.2083ZM60.2083 10H93.5417V26.6667H60.2083V10Z" fill="white"/>
<path d="M63.5417 13.3333H70.2083V16.6667H63.5417V13.3333Z" fill="white"/>
<path d="M73.5417 13.3333H90.2083V16.6667H73.5417V13.3333Z" fill="white"/>
<path d="M63.5417 20H90.2083V23.3333H63.5417V20Z" fill="white"/>
<path d="M94.9137 33.3333C93.6231 33.3358 92.3779 33.8094 91.4136 34.6663L76.875 47.4837V33.3333H73.5417V50H74.0234L64.5418 58.3667C58.3732 58.7199 53.549 63.8208 53.5417 70V72.9403C53.5482 74.5939 52.6131 76.1084 51.1304 76.8416C50.4378 77.1867 50.0741 77.9631 50.2515 78.7158C50.4289 79.4686 51.1011 80.0008 51.875 80H63.5417C69.7209 79.9927 74.8218 75.1685 75.175 68.9998L98.8851 42.1297C100.261 40.5688 100.596 38.3463 99.7388 36.4494C98.8827 34.5524 96.9946 33.3333 94.9137 33.3333V33.3333ZM63.5417 76.6667H55.9196C56.5487 75.5257 56.8774 74.2432 56.875 72.9403V70C56.8807 65.6584 60.214 62.0459 64.5418 61.6935L71.8481 68.9998C71.4966 73.3276 67.8833 76.6618 63.5417 76.6667ZM96.3851 39.9251L73.4668 65.9001L67.6416 60.0765L93.6165 37.1566C94.3937 36.4746 95.5664 36.5129 96.298 37.2436C97.0288 37.9753 97.0671 39.1479 96.3851 39.9251Z" fill="white"/>
<path d="M1.875 91.6667H38.5417C39.4621 91.6667 40.2083 90.9204 40.2083 90V76.6667C40.2083 75.7463 39.4621 75 38.5417 75H26.875V66.6667H23.5417V75H1.875C0.954588 75 0.208332 75.7463 0.208332 76.6667V90C0.208332 90.9204 0.954588 91.6667 1.875 91.6667ZM3.54167 78.3333H36.875V88.3333H3.54167V78.3333Z" fill="white"/>
<path d="M6.875 81.6667H15.2083V85H6.875V81.6667Z" fill="white"/>
<path d="M18.5417 81.6667H33.5417V85H18.5417V81.6667Z" fill="white"/>
<path d="M1.875 23.3333H18.5417C19.4621 23.3333 20.2083 22.5871 20.2083 21.6667V8.33334C20.2083 7.41293 19.4621 6.66667 18.5417 6.66667H1.875C0.954589 6.66667 0.208332 7.41293 0.208332 8.33334V21.6667C0.208332 22.5871 0.954589 23.3333 1.875 23.3333ZM3.54167 10H16.875V20H3.54167V10Z" fill="white"/>
<path d="M6.875 13.3333H13.5417V16.6667H6.875V13.3333Z" fill="white"/>
</g>
<defs>
<clipPath id="clip0">
<rect width="100" height="100" fill="white"/>
</clipPath>
</defs>
</svg>
